<svg width="228" height="29" viewBox="0 0 228 29" fill="none" xmlns="http://www.w3.org/2000/svg">
<g id="&#227;&#130;&#176;&#227;&#131;&#171;&#227;&#131;&#188;&#227;&#131;&#151; 9">
<path id="&#227;&#131;&#145;&#227;&#130;&#185; 7" d="M13.0377 7.31784C12.7462 6.5579 12.2206 5.91004 11.5368 5.46763C10.853 5.02523 10.0463 4.81112 9.23282 4.85618C6.91826 4.85618 5.72328 6.23599 5.72328 7.83661C5.72328 8.58541 5.9846 9.88768 8.41448 10.8573L10.9098 11.8612C15.502 13.7258 16.7712 16.3367 16.7712 19.1679C16.7712 23.9011 13.411 27.1459 8.74751 27.1459C5.87297 27.1459 4.16163 26.0644 2.8894 24.6503C1.66825 23.3139 0.931996 21.6064 0.798828 19.8019L4.56895 18.9815C4.57165 20.1221 4.93775 21.2324 5.61424 22.1513C5.99874 22.6381 6.49333 23.0268 7.0574 23.2856C7.62148 23.5444 8.23895 23.6659 8.85914 23.6401C11.1707 23.6401 12.966 21.9649 12.966 19.4677C12.966 16.9319 11.0247 15.8862 9.38067 15.2161L6.9944 14.2092C4.94116 13.3544 1.92025 11.6389 1.92025 7.91267C1.92025 4.55599 4.53051 1.35181 9.19734 1.35181C11.8823 1.35181 13.411 2.3587 14.1939 3.02996C14.9795 3.73526 15.6254 4.58184 16.0978 5.52559L13.0377 7.31784Z" fill="#222222"/>
<path id="&#227;&#131;&#145;&#227;&#130;&#185; 8" d="M30.7773 1.79822C32.3049 1.79822 34.4328 1.95034 36.2247 3.14406C37.1982 3.8178 37.9901 4.7212 38.5301 5.77407C39.0701 6.82693 39.3415 7.99669 39.3203 9.17951C39.3444 10.2092 39.1395 11.2313 38.7204 12.1723C38.3013 13.1133 37.6784 13.9497 36.8967 14.6212C34.9181 16.2994 32.6439 16.5604 30.8142 16.5604H29.097V26.6611H25.2925V1.79822H30.7773ZM29.0974 13.0538H30.8146C34.1002 13.0538 35.6648 11.4532 35.6648 9.14C35.6648 7.76019 35.1048 5.3 30.7773 5.3H29.0974V13.0538Z" fill="#222222"/>
<path id="&#227;&#131;&#145;&#227;&#130;&#185; 9" d="M51.3856 1.79822C54.4094 1.79822 56.3477 2.17114 57.9534 3.25262C60.6786 5.07994 60.9026 8.02308 60.9026 9.10788C60.9026 12.685 58.7 15.2925 55.3771 16.0383L63.1425 26.6611H58.5503L51.4229 16.4877H50.7509V26.663H46.9438V1.79822H51.3856ZM50.7509 13.2041H51.9455C52.9908 13.2041 57.2437 13.0952 57.2437 9.14259C57.2437 5.63674 53.9241 5.30259 52.0575 5.30259H50.7509V13.2041Z" fill="#222222"/>
<path id="&#227;&#131;&#145;&#227;&#130;&#185; 10" d="M84.3453 5.37865H74.421V11.6785H84.047V15.2556H74.421V23.0833H84.3457V26.6604H70.6128V1.79822H84.3453V5.37865Z" fill="#222222"/>
<path id="&#227;&#131;&#145;&#227;&#130;&#185; 11" d="M107.641 20.6602H97.0072L94.282 26.6617H90.1792L102.568 0.344421L114.356 26.6617H110.253L107.641 20.6602ZM106.111 17.0831L102.418 8.65765L98.5736 17.0831H106.111Z" fill="#222222"/>
<path id="&#227;&#131;&#145;&#227;&#130;&#185; 12" d="M124.971 1.79822C128.439 1.79822 131.46 2.17114 134.223 4.22222C137.244 6.49705 138.999 10.1118 138.999 14.2483C138.999 18.3848 137.284 21.9652 133.999 24.2774C131.087 26.3255 128.362 26.6611 124.893 26.6611H119.747V1.79822H124.971ZM123.552 23.084H125.195C127.058 23.084 129.634 22.9363 131.796 21.3313C132.875 20.496 133.744 19.4208 134.334 18.1912C134.923 16.9616 135.218 15.6115 135.194 14.2483C135.194 10.9695 133.626 8.39637 131.837 7.09077C129.668 5.52745 127.02 5.37828 125.194 5.37828H123.552L123.552 23.084Z" fill="#222222"/>
<path id="&#227;&#131;&#145;&#227;&#130;&#185; 13" d="M177.262 14.2498C177.262 21.5565 171.774 27.1474 164.314 27.1474C156.853 27.1474 151.365 21.5565 151.365 14.2498C151.365 6.94308 156.853 1.35367 164.314 1.35367C171.775 1.35367 177.262 6.9416 177.262 14.2498ZM173.457 14.2498C173.457 8.73643 169.65 4.85767 164.314 4.85767C158.977 4.85767 155.173 8.73459 155.173 14.2498C155.173 19.765 158.978 23.6419 164.314 23.6419C169.65 23.6419 173.457 19.7646 173.457 14.2498Z" fill="#222222"/>
<path id="&#227;&#131;&#145;&#227;&#130;&#185; 14" d="M183.917 26.6611V0.123016L201.978 19.0188V1.79822H205.782V28.1901L187.722 9.29139V26.6611H183.917Z" fill="#222222"/>
<path id="&#227;&#131;&#145;&#227;&#130;&#185; 15" d="M227.744 5.37865H217.816V11.6785H227.445V15.2556H217.816V23.0833H227.744V26.6604H214.014V1.79822H227.744V5.37865Z" fill="#222222"/>
</g>
</svg>
