<svg width="40" height="48" viewBox="0 0 40 48" fill="none" xmlns="http://www.w3.org/2000/svg">
<g id="&#227;&#130;&#176;&#227;&#131;&#171;&#227;&#131;&#188;&#227;&#131;&#151; 8">
<g id="&#227;&#130;&#176;&#227;&#131;&#171;&#227;&#131;&#188;&#227;&#131;&#151; 6">
<path id="&#227;&#131;&#145;&#227;&#130;&#185; 4" d="M33.2034 0.184753L6.33973 27.0463L21.9625 23.3071L3.9043 47.0915L33.0884 16.8515L19.6649 19.7942L33.2034 0.184753Z" fill="#005DAB"/>
</g>
<g id="&#227;&#130;&#176;&#227;&#131;&#171;&#227;&#131;&#188;&#227;&#131;&#151; 7">
<path id="&#227;&#131;&#145;&#227;&#130;&#185; 5" d="M30.6669 5.17841L29.8098 6.42013C33.6799 8.88979 36.4839 12.7178 37.6693 17.1499C38.8546 21.5821 38.3354 26.2969 36.2138 30.3657C34.0923 34.4344 30.5223 37.5619 26.2072 39.132C21.8922 40.7021 17.1449 40.601 12.9007 38.8486L11.79 40.0002C16.3652 42.0473 21.5458 42.2918 26.2938 40.6847C31.0418 39.0777 35.0066 35.7378 37.3939 31.3342C39.7811 26.9305 40.4145 21.7885 39.1671 16.9381C37.9197 12.0877 34.8837 7.88732 30.6673 5.17841H30.6669Z" fill="#222222"/>
<path id="&#227;&#131;&#145;&#227;&#130;&#185; 6" d="M9.34301 38.6876L10.2571 37.482C6.28995 35.0477 3.39611 31.1994 2.16064 26.7153C0.925168 22.2311 1.44024 17.4456 3.60172 13.3263C5.7632 9.20695 9.40982 6.06116 13.8043 4.52491C18.1988 2.98866 23.0133 3.17657 27.2744 5.05064L28.4003 3.92449C23.8185 1.74929 18.5775 1.40693 13.7512 2.96758C8.9249 4.52823 4.87887 7.87369 2.44228 12.3184C0.00569636 16.763 -0.636931 21.9703 0.646099 26.8731C1.92913 31.7758 5.04065 36.0027 9.34301 38.6876Z" fill="#222222"/>
</g>
</g>
</svg>
